HIERARCHY
ROOT ui
{
	 OFFSET 0 0 0
	 CHANNELS 3 XPosition YPosition Z Position
	 EndSite
	 {
	 OFFSET 0 -1 0
	 }
}
ROOT li
{
	 OFFSET 0 0 0
	 CHANNELS 3 XPosition YPosition Z Position
	 EndSite
	 {
	 OFFSET 0 -1 0
	 }
}
ROOT ul
{
	 OFFSET 0 0 0
	 CHANNELS 3 XPosition YPosition Z Position
	 EndSite
	 {
	 OFFSET 0 -1 0
	 }
}
ROOT ll
{
	 OFFSET 0 0 0
	 CHANNELS 3 XPosition YPosition Z Position
	 EndSite
	 {
	 OFFSET 0 -1 0
	 }
}
ROOT tt
{
	 OFFSET 0 0 0
	 CHANNELS 3 XPosition YPosition Z Position
	 EndSite
	 {
	 OFFSET 0 -1 0
	 }
}
ROOT tb
{
	 OFFSET 0 0 0
	 CHANNELS 3 XPosition YPosition Z Position
	 EndSite
	 {
	 OFFSET 0 -1 0
	 }
}
ROOT td
{
	 OFFSET 0 0 0
	 CHANNELS 3 XPosition YPosition Z Position
	 EndSite
	 {
	 OFFSET 0 -1 0
	 }
}
ROOT v
{
	 OFFSET 0 0 0
	 CHANNELS 3 XPosition YPosition Z Position
	 EndSite
	 {
	 OFFSET 0 -1 0
	 }
}
ROOT bn
{
	 OFFSET 0 0 0
	 CHANNELS 3 XPosition YPosition Z Position
	 EndSite
	 {
	 OFFSET 0 -1 0
	 }
}
MOTION
Frames: 32
Frame Time: 0.002
0.007296518802642822	0.0015208319425582886	0		0.4362034912109375	-2.3631357421875	0		-1.1498699951171876	0.23128282165527345	0		-0.7228807983398438	-2.362367919921875	0		1.5856705322265625	-0.3716193542480469	0		3.108286376953125	-0.1760029754638672	0		4.3805537109375	0.15081373596191405	0		5.9416767578125	0.30253958129882813	0		-0.31493927001953126	5.950109375	0		
0.01569632911682129	1.626330018043518E-4	0		0.43879739379882815	-2.361389892578125	0		-1.079541015625	0.22506294250488282	0		-0.6433057861328125	-2.36267431640625	0		1.6410277099609376	-0.37846902465820315	0		3.10390185546875	-0.16099362182617188	0		4.38396923828125	0.1518065185546875	0		5.9395283203125	0.38070361328125	0		-0.33103036499023436	5.94103466796875	0		
0.004061606884002686	-0.0019457579851150512	0		0.4622548217773437	-2.368910888671875	0		-1.0804185791015626	0.20474403381347656	0		-0.7215249633789063	-2.343983642578125	0		1.5994080810546876	-0.3810903625488281	0		3.085051513671875	-0.18080575561523438	0		4.388033203125	0.1267904281616211	0		5.95078515625	0.29755856323242186	0		-0.3461757202148438	5.92994140625	0		
-0.04655239868164063	-5.697659850120544E-4	0		0.42692276000976564	-2.357693359375	0		-1.073239013671875	0.190321533203125	0		-0.6450180053710938	-2.34624853515625	0		1.62964990234375	-0.3936229248046875	0		3.1012685546875	-0.19406365966796876	0		4.37515673828125	0.10798351287841797	0		5.931884765625	0.3156744079589844	0		-0.3272657470703125	5.9244169921875	0		
0.004785062789916993	-0.002474916934967041	0		0.4373170166015625	-2.367055419921875	0		-1.155078369140625	0.176010009765625	0		-0.7093566284179688	-2.333746337890625	0		1.591044921875	-0.3922962341308594	0		3.100435302734375	-0.21011396789550782	0		4.38734033203125	0.09485368347167969	0		5.93439404296875	0.33830679321289064	0		-0.3802933654785156	5.924791015625	0		
0.005131938934326172	-0.0027413780689239504	0		0.44087332153320313	-2.36233251953125	0		-1.0788602294921874	0.16572837829589843	0		-0.6967037963867188	-2.321207275390625	0		1.5992169189453125	-0.408561767578125	0		3.08505712890625	-0.18899020385742188	0		4.38768115234375	0.09486077880859375	0		5.95397900390625	0.3534761047363281	0		-0.3462569885253906	5.929078125	0		
0.012567802429199219	0.0039059081077575685	0		0.4324739685058594	-2.353462158203125	0		-1.1537615966796875	0.14632708740234374	0		-0.7078953247070312	-2.2953681640625	0		1.5995906982421875	-0.40873367309570313	0		3.097095947265625	-0.21522096252441406	0		4.384791015625	0.07589144897460938	0		5.9542294921875	0.35362371826171873	0		-0.3462560729980469	5.92879150390625	0		
0.012929501533508301	0.0036431119441986083	0		0.4240632629394531	-2.345591796875	0		-1.0847203369140626	0.12015383911132813	0		-0.7162845458984375	-2.285560302734375	0		1.5908402099609376	-0.41979840087890624	0		3.126455078125	-0.21667222595214844	0		4.3820751953125	0.06990438842773437	0		5.95448876953125	0.3537311706542969	0		-0.326292724609375	5.922263671875	0		
0.0062248120307922365	-0.0035295109748840333	0		0.4225358581542969	-2.3478056640625	0		-1.171473876953125	0.10990721893310547	0		-0.7066810302734375	-2.276966064453125	0		1.587193115234375	-0.4239298095703125	0		3.1026767578125	-0.23048178100585937	0		4.39021923828125	0.050765399932861326	0		5.95248974609375	0.32790963745117185	0		-0.36125186157226563	5.9184169921875	0		
0.013713389396667481	0.003130223035812378	0		0.43396853637695315	-2.354175537109375	0		-1.0873499755859375	0.08657737731933594	0		-0.698068115234375	-2.26835009765625	0		1.5954193115234374	-0.4402110595703125	0		3.088103759765625	-0.22941690063476564	0		4.4004365234375	0.03558288955688477	0		5.95277880859375	0.3279232482910156	0		-0.34598760986328125	5.92796240234375	0		
0.019079524993896483	-0.002178394079208374	0		0.41157199096679686	-2.34712841796875	0		-1.164066162109375	0.07522549438476563	0		-0.7573191528320312	-2.248896484375	0		1.5799254150390625	-0.43520498657226564	0		3.12243994140625	-0.23796183776855467	0		4.4008623046875	0.03550080108642578	0		5.95900732421875	0.37096237182617187	0		-0.3768917541503906	5.91907861328125	0		
0.021674341201782226	0.00955507755279541	0		0.45815219116210937	-2.342916259765625	0		-1.0799046630859375	0.050929088592529294	0		-0.6826226806640625	-2.2350615234375	0		1.5773399658203124	-0.43936065673828123	0		3.1100068359375	-0.22894866943359374	0		4.40416455078125	0.02336143493652344	0		5.96645166015625	0.36892852783203123	0		-0.3435457458496094	5.925423828125	0		
0.015054281234741212	0.002405854940414429	0		0.42865264892578125	-2.3447763671875	0		-1.0906707763671875	0.031801921844482425	0		-0.7608911743164063	-2.21735791015625	0		1.5966444091796874	-0.45378579711914063	0		3.0762373046875	-0.24869340515136718	0		4.4084951171875	0.01218778133392334	0		5.95965966796875	0.3707178649902344	0		-0.36032369995117186	5.91738671875	0		
0.015522719383239746	0.0021771779060363768	0		0.4531014099121094	-2.350287353515625	0		-1.10447998046875	0.008724210739135742	0		-0.7642007446289063	-2.20255322265625	0		1.599	-0.4640092468261719	0		3.09475732421875	-0.24508457946777343	0		4.40489111328125	0.00608758020401001	0		5.9648740234375	0.34787448120117187	0		-0.3390487060546875	5.90989794921875	0		
-0.06808533477783203	-0.0030316898822784423	0		0.4296491394042969	-2.345217041015625	0		-1.1061666259765626	-0.003488037109375	0		-0.7545967407226563	-2.19289599609375	0		1.6023426513671875	-0.4742507629394531	0		3.122010986328125	-0.2625982666015625	0		4.41109521484375	-0.015156886100769044	0		5.95735595703125	0.3478359680175781	0		-0.34247723388671875	5.924716796875	0		
0.016416326522827148	0.0017308729887008667	0		0.4331567077636719	-2.3404736328125	0		-1.097888916015625	-0.016811487197875976	0		-0.7460419921875	-2.18421923828125	0		1.585842041015625	-0.46925958251953126	0		3.11753271484375	-0.2557443389892578	0		4.4274326171875	-0.023548864364624025	0		5.95799365234375	0.4132403564453125	0		-0.3761424865722656	5.91890380859375	0		
-0.05712553405761719	0.006402707099914551	0		0.43558273315429685	-2.338719970703125	0		-1.0955933837890626	-0.026055585861206054	0		-0.7753477783203125	-2.16007958984375	0		1.603184326171875	-0.4746879577636719	0		3.10885302734375	-0.26286007690429686	0		4.41986181640625	-0.02167869758605957	0		5.9661279296875	0.41261614990234374	0		-0.34166195678710937	5.924271484375	0		
0.010108270645141602	-0.005629707813262939	0		0.422987548828125	-2.3347900390625	0		-1.10140283203125	-0.04119826889038086	0		-0.7820750732421875	-2.167213134765625	0		1.6023956298828126	-0.48790975952148435	0		3.127269775390625	-0.25932315063476563	0		4.4280029296875	-0.041028228759765625	0		5.97351611328125	0.4102187194824219	0		-0.32231143188476563	5.91882080078125	0		
-0.059447334289550784	0.0029877760410308837	0		0.4322038269042969	-2.34313232421875	0		-1.109156982421875	-0.0493160171508789	0		-0.7868193969726562	-2.172371337890625	0		1.6386568603515625	-0.49459335327148435	0		3.091514892578125	-0.2671542663574219	0		4.43326025390625	-0.04837152862548828	0		5.9666376953125	0.4116342468261719	0		-0.32288369750976564	5.91960791015625	0		
0.010773844718933105	-0.006095086097717285	0		0.43248605346679686	-2.343376220703125	0		-1.17597509765625	-0.0607203254699707	0		-0.8634921875	-2.1686611328125	0		1.590853759765625	-0.5042760620117187	0		3.108686767578125	-0.27964981079101564	0		4.43441259765625	-0.06269650268554687	0		5.96686767578125	0.41104415893554686	0		-0.37348959350585936	5.91699560546875	0		
0.021212736129760743	0.0035360620021820067	0		0.41286279296875	-2.33439013671875	0		-1.16971923828125	-0.06601299285888672	0		-0.7832282104492188	-2.169859375	0		1.6170740966796875	-0.5118731994628907	0		3.1448505859375	-0.29240185546875	0		4.43964453125	-0.0701022720336914	0		5.97787109375	0.4256400146484375	0		-0.37305111694335935	5.91575732421875	0		
0.021541818618774414	0.0032766029834747313	0		0.43910308837890627	-2.336976318359375	0		-1.179379150390625	-0.06511902618408204	0		-0.857890869140625	-2.164185302734375	0		1.62231591796875	-0.5182357177734375	0		3.130428466796875	-0.2715639343261719	0		4.45789697265625	-0.07669844055175781	0		5.9774189453125	0.4301249389648438	0		-0.33848126220703123	5.92209423828125	0		
0.01885719680786133	3.897999972105026E-5	0		0.42845751953125	-2.331129638671875	0		-1.1042911376953124	-0.08726997375488281	0		-0.7857080688476562	-2.173310546875	0		1.6494547119140626	-0.5348870239257812	0		3.09050634765625	-0.29344366455078125	0		4.454173828125	-0.08305883026123047	0		5.9727822265625	0.45024090576171877	0		-0.3048662414550781	5.928427734375	0		
0.01618988609313965	-0.004216175079345703	0		0.4287608337402344	-2.331435546875	0		-1.18004150390625	-0.0975942611694336	0		-0.8593328247070312	-2.167671142578125	0		1.607796875	-0.536719970703125	0		3.116802734375	-0.3001561584472656	0		4.45231982421875	-0.10247362518310547	0		5.9880322265625	0.4489448547363281	0		-0.3383571472167969	5.92256298828125	0		
-0.06136517715454102	-0.0015723069906234742	0		0.43595648193359376	-2.34284814453125	0		-1.1067952880859375	-0.11175839233398438	0		-0.8220231323242188	-2.170406005859375	0		1.6129466552734375	-0.5571495361328125	0		3.11720654296875	-0.30057998657226564	0		4.45764501953125	-0.11000611877441406	0		5.98832861328125	0.44803164672851564	0		-0.37180117797851564	5.91668017578125	0		
0.020105302810668944	-9.016640186309815E-4	0		0.414408447265625	-2.33592919921875	0		-1.181329345703125	-0.1101292724609375	0		-0.8565883178710938	-2.165280029296875	0		1.6133778076171874	-0.5575450439453125	0		3.1176474609375	-0.3010318908691406	0		4.4580927734375	-0.11050831604003906	0		5.98865185546875	0.44706146240234373	0		-0.35600527954101563	5.926173828125	0		
0.023638397216796874	0.0017004480361938476	0		0.4318881530761719	-2.330515380859375	0		-1.1099044189453124	-0.11631975555419923	0		-0.8291151733398437	-2.160940673828125	0		1.6108035888671874	-0.5619293212890625	0		3.117021240234375	-0.310498046875	0		4.47448486328125	-0.11923561859130859	0		5.99196533203125	0.4667134094238281	0		-0.287151611328125	5.93598779296875	0		
0.021148942947387697	-0.0016495800018310547	0		0.432346923828125	-2.330918212890625	0		-1.189528564453125	-0.12967266845703124	0		-0.8686469116210938	-2.160800537109375	0		1.6411788330078125	-0.5747474975585938	0		3.141629150390625	-0.30530059814453125	0		4.4678798828125	-0.13170466613769533	0		5.99095703125	0.4708809204101562	0		-0.32142535400390626	5.9320458984375	0		
0.021749914169311522	-0.002065186977386475	0		0.42193734741210936	-2.325212890625	0		-1.1120623779296874	-0.14099887084960938	0		-0.84005322265625	-2.15553125	0		1.5976875	-0.5806760864257813	0		3.095185302734375	-0.30824749755859376	0		4.473388671875	-0.13934577941894533	0		5.99138720703125	0.469779052734375	0		-0.3206055908203125	5.931642578125	0		
0.02240161895751953	-0.002510581016540527	0		0.37747406005859374	-2.32811181640625	0		-1.1844970703125	-0.14749522399902343	0		-0.8645245971679687	-2.159635009765625	0		1.619831787109375	-0.6204473876953125	0		3.10776318359375	-0.31394927978515624	0		4.474861328125	-0.15395803833007812	0		5.98696728515625	0.48955499267578123	0		-0.3376954345703125	5.93543310546875	0		
0.02309564781188965	-0.0029867410659790037	0		0.4449755859375	-2.33843505859375	0		-1.1838077392578126	-0.14793251037597657	0		-0.8868982543945313	-2.15979541015625	0		1.606444580078125	-0.6257998657226562	0		3.11935888671875	-0.3216615905761719	0		4.46862548828125	-0.14849072265625	0		6.00384033203125	0.4827108154296875	0		-0.32169891357421876	5.94378076171875	0		
-0.04607535552978516	0.005381031036376953	0		0.3868619079589844	-2.3202177734375	0		-1.1802012939453126	-0.157442138671875	0		-0.8591762084960938	-2.155614990234375	0		1.6240987548828125	-0.6305650634765625	0		3.101287353515625	-0.3050213623046875	0		4.48034423828125	-0.14926319885253905	0		5.9994814453125	0.5041742858886719	0		-0.32077999877929686	5.94528271484375	0		
